<?xml version="1.0" standalone="no"?>
<!DOCTYPE svg PUBLIC "-//W3C//DTD SVG 20010904//EN"
 "http://www.w3.org/TR/2001/REC-SVG-20010904/DTD/svg10.dtd">
<svg version="1.0" xmlns="http://www.w3.org/2000/svg"
 width="640.000000pt" height="640.000000pt" viewBox="0 0 640.000000 640.000000"
 preserveAspectRatio="xMidYMid meet">

<g transform="translate(0.000000,640.000000) scale(0.100000,-0.100000)"
fill="#000000" stroke="none">
<path d="M1570 2721 c0 -24 68 -197 112 -286 175 -352 475 -635 838 -792 172
-74 304 -109 509 -133 82 -9 99 -15 128 -40 56 -49 123 -53 184 -9 115 81 50
259 -94 259 -42 0 -53 -5 -91 -40 -49 -45 -66 -48 -189 -29 -156 23 -293 65
-443 134 -87 41 -121 65 -91 65 7 0 24 11 37 25 13 14 33 25 44 25 32 0 86 37
86 59 0 10 6 24 14 30 15 13 121 17 155 6 23 -7 111 47 111 69 0 7 8 21 19 30
10 9 21 30 24 45 5 23 16 32 60 50 30 12 69 37 86 55 27 28 30 36 22 58 -5 14
-20 37 -33 51 -13 13 -31 36 -41 51 -10 14 -26 26 -35 26 -9 0 -38 23 -64 51
l-46 50 -30 -15 c-29 -15 -62 -13 -62 4 0 4 15 14 33 21 l32 14 -50 5 c-61 6
-71 33 -15 38 39 4 61 18 45 30 -6 4 -17 27 -25 52 l-15 45 -70 3 c-57 2 -68
1 -57 -10 7 -7 27 -18 44 -24 38 -12 47 -30 20 -38 -32 -10 -46 -58 -31 -103
6 -20 18 -44 26 -51 7 -7 13 -19 13 -27 0 -20 81 -57 97 -43 10 8 22 2 52 -25
21 -19 48 -38 59 -41 17 -6 62 -65 62 -82 0 -3 -29 -18 -64 -34 -54 -25 -66
-36 -79 -68 -9 -21 -27 -53 -42 -70 -25 -30 -30 -31 -96 -31 -97 1 -166 -25
-184 -68 -9 -21 -21 -33 -33 -33 -11 0 -36 -12 -57 -26 -37 -25 -39 -25 -74
-10 -28 13 -44 14 -71 6 -30 -8 -39 -7 -70 15 -20 14 -52 41 -71 61 -31 32
-32 37 -17 48 25 18 128 234 128 268 0 32 -29 95 -66 144 -18 25 -25 49 -29
115 -10 131 -9 129 -58 129 -23 0 -37 -4 -31 -8 6 -4 14 -58 18 -127 6 -106
10 -123 30 -145 68 -74 73 -118 21 -205 -20 -32 -38 -69 -41 -82 -4 -14 -14
-27 -23 -31 -9 -3 -19 -9 -22 -14 -17 -26 -211 245 -289 407 -33 67 -62 141
-66 164 l-7 41 -68 0 c-38 0 -69 -4 -69 -9z m775 -811 c-3 -5 -10 -10 -16 -10
-5 0 -9 5 -9 10 0 6 7 10 16 10 8 0 12 -4 9 -10z"/>
<path d="M2979 2715 c-34 -12 -49 -30 -49 -61 0 -48 5 -49 469 -54 l436 -5 5
-203 c5 -187 7 -205 24 -218 15 -10 54 -14 152 -14 l133 0 21 -30 c45 -63 163
-92 220 -53 79 52 107 109 95 191 -5 35 -17 55 -55 93 -48 48 -50 49 -113 49
-55 0 -70 -4 -105 -30 -23 -16 -48 -43 -57 -60 -15 -30 -16 -30 -100 -30 l-85
0 -1 83 c-2 217 -10 312 -27 330 -17 16 -52 18 -475 20 -291 1 -468 -2 -488
-8z m1375 -430 c24 -25 29 -54 12 -80 -36 -54 -116 -35 -116 27 0 17 7 40 17
50 20 22 66 24 87 3z"/>
<path d="M3170 2440 c-11 -11 -20 -31 -20 -45 0 -14 9 -34 20 -45 19 -19 33
-20 200 -20 167 0 181 1 200 20 11 11 20 31 20 45 0 14 -9 34 -20 45 -19 19
-33 20 -200 20 -167 0 -181 -1 -200 -20z"/>
<path d="M3377 2262 c-23 -25 -21 -65 4 -88 18 -16 38 -18 174 -19 137 0 155
2 174 19 26 23 27 67 3 89 -16 14 -44 17 -179 17 -142 0 -162 -2 -176 -18z"/>
<path d="M3202 2090 c-25 -24 -28 -56 -6 -85 13 -18 29 -20 170 -23 129 -3
159 -1 180 13 30 19 32 67 4 95 -18 18 -33 20 -173 20 -140 0 -155 -2 -175
-20z"/>
</g>
</svg>
